<?xml version="1.0" standalone="no"?>
<!DOCTYPE svg PUBLIC "-//W3C//DTD SVG 20010904//EN"
 "http://www.w3.org/TR/2001/REC-SVG-20010904/DTD/svg10.dtd">
<svg version="1.0" xmlns="http://www.w3.org/2000/svg"
 width="2500.000000pt" height="2500.000000pt" viewBox="0 0 2500.000000 2500.000000"
 preserveAspectRatio="xMidYMid meet">
<metadata>
Created by potrace 1.14, written by Peter Selinger 2001-2017
</metadata>
<g transform="translate(0.000000,2500.000000) scale(0.100000,-0.100000)"
fill="#000000" stroke="none">
<path d="M12650 23847 c-7 -18 -16 -34 -20 -37 -3 -3 -27 -43 -52 -90 -43 -81
-63 -117 -124 -227 -15 -27 -42 -77 -62 -113 -19 -36 -40 -72 -46 -80 -6 -8
-27 -45 -46 -83 -19 -37 -39 -75 -45 -85 -5 -9 -32 -57 -59 -107 -27 -49 -58
-106 -69 -125 -11 -19 -31 -55 -45 -80 -13 -25 -32 -58 -42 -75 -10 -16 -33
-59 -52 -95 -19 -36 -56 -102 -81 -147 -26 -45 -47 -87 -47 -93 0 -5 -4 -10
-10 -10 -5 0 -10 -4 -10 -10 0 -8 -173 -330 -199 -370 -6 -8 -20 -35 -33 -60
-12 -25 -27 -52 -34 -60 -6 -8 -31 -53 -56 -100 -25 -47 -56 -105 -70 -130
-87 -155 -185 -332 -207 -375 -14 -27 -28 -52 -31 -55 -3 -3 -14 -23 -26 -45
-11 -22 -33 -62 -49 -90 -15 -27 -35 -63 -43 -80 -8 -16 -24 -42 -34 -57 -11
-16 -16 -28 -13 -28 3 0 -2 -12 -13 -27 -18 -27 -44 -73 -120 -213 -20 -36
-49 -87 -64 -115 -15 -27 -31 -57 -35 -65 -4 -8 -19 -35 -33 -60 -71 -122
-159 -290 -199 -382 -12 -27 -29 -67 -40 -90 -10 -24 -51 -117 -91 -208 -40
-91 -83 -188 -96 -216 -13 -28 -24 -56 -24 -62 0 -7 -4 -12 -10 -12 -5 0 -10
-6 -10 -14 0 -7 -16 -49 -35 -92 -20 -44 -39 -88 -44 -99 -5 -11 -17 -38 -27
-60 -10 -22 -19 -47 -20 -55 -2 -8 -8 -16 -13 -18 -6 -2 -11 -10 -11 -17 0 -8
-15 -47 -33 -87 -19 -40 -42 -93 -53 -118 -10 -25 -23 -48 -29 -52 -5 -4 -7
-8 -3 -8 11 0 -123 -286 -141 -300 -4 -3 -12 -16 -18 -30 -7 -14 -25 -47 -41
-75 -16 -27 -42 -72 -57 -100 -15 -27 -31 -54 -35 -60 -4 -5 -21 -35 -37 -65
-71 -131 -228 -407 -245 -432 -11 -16 -16 -28 -11 -28 4 0 3 -4 -2 -8 -9 -6
-115 -186 -115 -195 0 -4 -145 -226 -157 -242 -5 -5 -24 -35 -43 -65 -19 -30
-40 -61 -47 -68 -6 -6 -15 -21 -18 -32 -3 -11 -11 -20 -16 -20 -5 0 -9 -5 -9
-10 0 -9 -95 -158 -118 -186 -5 -5 -15 -21 -22 -35 -14 -26 -30 -41 -161 -162
-47 -42 -94 -94 -105 -115 -42 -77 -94 -170 -154 -277 -34 -60 -66 -119 -71
-130 -5 -11 -18 -34 -28 -51 -10 -17 -36 -62 -57 -100 -20 -38 -47 -86 -58
-106 -87 -153 -156 -281 -156 -289 0 -5 -3 -9 -8 -9 -4 0 -15 -17 -25 -37 -9
-21 -21 -45 -27 -53 -5 -8 -28 -49 -51 -90 -23 -41 -49 -88 -59 -105 -9 -16
-36 -66 -60 -110 -24 -44 -51 -92 -61 -107 -11 -14 -19 -29 -19 -32 0 -3 -55
-103 -121 -223 -67 -120 -135 -243 -152 -273 -16 -30 -45 -81 -63 -112 -18
-32 -30 -58 -26 -58 4 0 2 -4 -4 -8 -6 -4 -28 -38 -49 -77 -21 -38 -56 -101
-78 -140 -21 -38 -60 -108 -85 -155 -25 -47 -53 -96 -62 -110 -9 -14 -29 -51
-46 -82 -16 -32 -32 -58 -36 -58 -5 0 -8 -8 -8 -19 0 -10 -7 -24 -15 -31 -8
-7 -15 -16 -15 -20 0 -5 -16 -37 -36 -72 -20 -34 -50 -88 -67 -118 -16 -30
-38 -69 -48 -87 -10 -18 -35 -63 -55 -100 -20 -37 -51 -93 -68 -123 -17 -30
-43 -76 -56 -102 -14 -27 -28 -48 -32 -48 -5 0 -8 -6 -8 -14 0 -7 -22 -51 -48
-97 -27 -46 -65 -115 -86 -152 -40 -74 -57 -104 -116 -208 -22 -39 -40 -72
-40 -74 0 -2 -15 -30 -34 -62 -18 -32 -45 -79 -60 -105 -14 -27 -38 -69 -52
-95 -15 -27 -42 -74 -60 -106 -19 -32 -34 -60 -34 -63 0 -2 35 -27 78 -54 42
-27 82 -54 88 -59 20 -16 124 -82 161 -102 13 -7 23 -16 23 -21 0 -4 4 -8 10
-8 5 0 87 -51 182 -113 336 -221 439 -287 444 -287 3 0 10 -5 17 -11 7 -5 118
-79 247 -163 129 -84 256 -167 282 -185 26 -17 52 -31 57 -31 5 0 11 -3 13 -8
3 -8 179 -126 188 -127 3 0 21 -12 41 -28 20 -15 39 -27 43 -27 4 0 12 -5 19
-10 25 -21 88 -60 97 -60 6 0 10 -4 10 -8 0 -5 12 -15 28 -23 15 -8 32 -18 37
-22 6 -4 57 -39 115 -76 395 -256 581 -377 885 -577 66 -43 132 -85 148 -92
15 -8 27 -18 27 -23 0 -5 5 -9 10 -9 6 0 44 -22 85 -50 41 -27 79 -50 85 -50
5 0 10 -4 10 -9 0 -5 15 -16 34 -25 18 -8 39 -22 46 -31 7 -8 18 -15 25 -15 8
0 15 -3 17 -8 2 -4 28 -23 58 -42 30 -19 100 -63 156 -99 123 -81 125 -82 198
-129 32 -20 64 -43 71 -49 8 -7 16 -13 19 -13 5 0 331 -211 351 -227 6 -4 22
-14 38 -22 15 -8 27 -18 27 -23 0 -4 4 -8 9 -8 8 0 234 -145 616 -395 238
-156 346 -225 351 -225 3 0 12 -6 19 -13 30 -26 44 -37 50 -37 5 0 91 -56 120
-77 6 -5 22 -14 38 -22 15 -8 27 -18 27 -23 0 -4 4 -8 10 -8 8 0 78 -44 270
-170 84 -55 302 -197 365 -237 44 -29 85 -57 92 -62 7 -6 15 -11 19 -11 4 0
22 -11 39 -24 l32 -25 54 29 c30 16 74 40 99 52 25 13 47 26 48 31 2 4 12 7
22 7 10 0 20 3 22 8 2 4 26 18 53 32 28 14 58 32 69 40 10 8 19 13 20 10 2 -7
147 75 271 153 61 38 124 76 140 84 17 9 32 19 35 23 3 4 24 18 47 31 22 13
78 47 123 74 45 28 89 55 98 60 9 6 28 17 42 26 14 9 86 54 160 99 74 46 182
113 240 150 58 36 112 69 120 73 8 4 27 15 42 25 15 9 85 52 155 96 70 43 144
89 163 101 127 81 268 166 308 187 12 6 22 15 22 20 0 4 4 8 9 8 10 0 175 100
198 120 7 5 15 10 17 10 5 0 90 52 162 98 10 6 29 16 41 21 11 6 24 14 27 19
3 6 25 20 47 32 23 11 72 40 108 64 36 23 219 137 406 252 187 114 342 212
343 216 2 4 7 8 12 8 5 0 44 23 87 50 43 28 90 55 106 61 15 6 27 15 27 20 0
5 6 9 13 9 6 0 25 11 41 25 16 13 33 22 37 19 5 -3 9 -1 9 3 0 5 20 19 45 33
25 14 45 29 45 34 0 5 3 7 6 3 4 -3 21 5 39 18 17 14 36 25 40 25 4 0 23 11
41 25 18 14 36 25 40 25 4 0 22 11 40 25 18 14 35 25 38 25 4 0 32 17 64 37
105 67 444 278 480 298 26 15 302 184 342 210 83 54 231 145 236 145 3 0 17 9
32 19 48 34 137 88 146 88 5 1 12 5 15 10 3 5 71 49 151 97 157 96 210 129
252 158 15 10 32 18 38 18 5 0 10 5 10 10 0 6 4 10 9 10 12 0 405 242 409 252
2 5 8 8 14 8 5 0 40 19 76 43 37 24 74 46 82 50 8 4 38 22 67 40 l52 33 -39
68 c-22 38 -40 70 -40 71 0 2 -18 31 -40 64 -22 33 -40 62 -40 65 0 2 -22 41
-50 85 -27 44 -50 85 -50 91 0 5 -4 10 -10 10 -5 0 -10 7 -10 15 0 8 -4 15 -9
15 -5 0 -11 8 -15 18 -3 9 -14 31 -23 47 -10 17 -35 57 -54 90 -20 33 -68 113
-107 177 -40 65 -72 122 -72 128 0 5 -4 10 -10 10 -5 0 -10 4 -10 9 0 6 -27
53 -60 106 -33 53 -60 100 -60 106 0 5 -5 9 -12 9 -6 0 -8 3 -5 7 4 3 1 13 -6
22 -20 23 -137 220 -137 231 0 4 -3 10 -8 12 -10 4 -202 326 -202 338 0 6 -4
10 -8 10 -4 0 -18 19 -30 43 -31 58 -56 101 -62 107 -5 4 -27 40 -75 122 -5
10 -43 72 -82 138 -40 66 -73 125 -73 130 0 6 -4 10 -10 10 -5 0 -10 5 -10 10
0 6 -18 38 -40 71 -22 33 -40 62 -40 65 0 2 -18 33 -40 69 -22 36 -40 69 -40
74 0 5 -3 11 -8 13 -4 2 -23 28 -42 58 -19 30 -37 57 -40 60 -3 3 -26 34 -51
70 -24 36 -46 67 -49 70 -3 3 -28 37 -54 75 -96 138 -140 200 -149 210 -9 11
-83 115 -155 220 -41 59 -183 303 -257 440 -12 22 -62 110 -110 195 -98 173
-118 207 -148 265 -12 22 -24 42 -27 45 -3 3 -18 30 -34 60 -48 89 -50 94 -62
110 -10 14 -51 86 -100 180 -11 19 -21 37 -24 40 -3 3 -13 21 -24 40 -57 109
-90 167 -102 181 -8 8 -14 18 -14 22 0 3 -34 65 -75 138 -41 72 -75 133 -75
134 0 1 -29 53 -65 114 -36 62 -65 116 -65 121 0 5 -6 15 -12 22 -7 7 -20 27
-28 43 -8 17 -24 46 -36 65 -20 33 -37 63 -100 178 -15 26 -77 135 -137 242
-61 107 -120 213 -132 235 -12 22 -78 139 -147 260 -69 121 -137 241 -151 268
-50 89 -80 142 -100 177 -11 19 -31 55 -45 80 -13 25 -28 50 -32 55 -4 6 -25
42 -45 80 -21 39 -93 167 -161 286 -67 118 -132 233 -144 255 -11 21 -25 46
-30 54 -5 8 -65 114 -133 235 -68 121 -153 272 -189 335 -114 202 -121 214
-143 255 -12 22 -59 104 -103 183 -45 79 -82 147 -82 153 0 5 -4 9 -10 9 -5 0
-10 4 -10 10 0 8 -58 112 -149 270 -35 60 -67 120 -83 150 -7 14 -22 41 -34
60 -11 19 -38 67 -59 105 -21 39 -45 78 -53 88 -8 9 -11 17 -6 17 5 0 5 4 -1
8 -5 4 -15 16 -21 27 -20 38 -77 140 -97 175 -11 19 -31 55 -45 80 -14 25 -36
62 -49 82 -12 21 -23 40 -23 43 0 2 -35 67 -79 142 -43 76 -91 161 -106 188
-15 28 -62 111 -105 185 -42 74 -79 142 -83 150 -4 8 -17 31 -29 50 -11 19
-32 55 -45 80 -13 25 -33 61 -44 80 -67 114 -159 281 -159 289 0 5 -4 11 -8
13 -6 2 -159 269 -236 413 -6 11 -13 22 -16 25 -3 3 -14 22 -25 43 -26 51 -28
51 -45 14z"/>
<path d="M6168 11110 c10 -11 25 -33 33 -48 8 -15 17 -29 20 -32 4 -3 21 -30
40 -60 18 -30 37 -56 41 -58 4 -2 8 -8 8 -13 0 -6 5 -15 10 -22 19 -23 80
-112 87 -127 4 -8 32 -53 63 -100 31 -47 110 -166 175 -265 65 -99 164 -250
220 -335 56 -85 128 -195 160 -245 33 -49 63 -91 67 -93 4 -2 8 -7 8 -12 0 -8
80 -135 99 -157 6 -7 11 -17 11 -23 0 -5 5 -10 10 -10 6 0 10 -6 10 -14 0 -7
7 -19 15 -26 9 -7 23 -28 31 -46 9 -19 20 -34 25 -34 5 0 9 -4 9 -9 0 -8 246
-389 310 -481 6 -8 66 -100 135 -205 68 -104 128 -195 134 -202 6 -7 11 -14
11 -17 0 -3 25 -42 55 -86 30 -44 55 -85 55 -90 0 -6 4 -10 8 -10 5 0 15 -12
23 -27 7 -16 26 -44 41 -64 15 -20 28 -39 28 -43 0 -3 40 -65 88 -138 133
-199 316 -479 337 -515 11 -18 23 -33 27 -33 4 0 8 -4 8 -9 0 -5 31 -56 68
-113 99 -149 305 -461 407 -618 49 -74 124 -188 167 -253 43 -65 78 -120 78
-123 0 -3 5 -10 11 -17 18 -21 380 -572 388 -592 2 -5 12 -18 22 -28 10 -11
25 -34 33 -52 9 -18 22 -38 31 -45 8 -7 15 -17 15 -22 0 -6 14 -27 30 -48 17
-21 30 -41 30 -45 0 -5 11 -23 25 -41 14 -18 25 -37 25 -43 0 -6 4 -11 8 -11
5 0 15 -12 23 -27 8 -16 18 -32 22 -38 9 -11 124 -185 397 -604 91 -139 171
-259 178 -266 6 -8 12 -16 12 -19 0 -4 24 -41 53 -84 30 -42 56 -82 58 -87 5
-11 266 -408 310 -472 16 -23 29 -46 29 -51 0 -6 3 -12 8 -14 8 -4 52 -65 52
-73 0 -3 5 -11 11 -18 9 -11 50 -72 282 -427 34 -52 65 -96 69 -98 5 -2 8 -8
8 -12 0 -5 20 -38 45 -74 25 -37 45 -70 45 -74 0 -4 9 -18 21 -32 18 -23 163
-243 374 -565 142 -218 170 -260 178 -263 4 -2 7 -8 7 -12 0 -5 41 -71 91
-147 156 -235 164 -247 174 -263 13 -21 52 -81 65 -100 56 -82 160 -245 160
-251 0 -4 3 -9 8 -11 4 -2 22 -27 41 -55 18 -29 37 -53 41 -53 4 0 23 23 41
51 18 28 37 56 43 62 6 7 25 32 41 57 30 44 630 904 662 948 14 19 151 216
183 262 6 8 45 64 88 123 42 60 82 117 88 127 5 10 18 29 27 42 10 13 40 55
67 93 27 39 53 75 57 80 4 6 26 37 48 70 22 33 46 66 53 73 6 7 12 17 12 21 0
4 8 16 18 27 9 11 41 55 71 99 30 44 57 82 60 85 3 3 39 55 80 115 41 61 77
112 81 115 3 3 16 22 29 43 13 21 28 43 34 50 7 6 25 32 42 57 16 25 32 47 35
50 3 3 30 41 59 85 30 44 59 82 63 83 4 2 8 8 8 14 0 6 14 27 30 48 17 21 30
41 30 44 0 3 7 14 15 23 15 19 195 275 267 381 24 35 48 69 53 75 21 24 85
117 85 124 0 3 7 13 15 22 15 15 140 192 283 401 36 52 68 97 71 100 3 3 11
12 16 21 16 26 109 162 122 179 11 13 129 181 165 234 7 10 28 39 46 65 18 25
68 98 112 161 44 63 87 124 95 135 9 11 24 32 33 48 9 15 20 27 24 27 4 0 8 5
8 10 0 10 24 47 65 101 21 28 35 47 63 91 9 14 48 71 87 125 74 104 126 178
199 283 25 36 60 85 78 110 17 25 53 77 79 115 27 39 61 88 77 110 16 22 55
78 87 125 32 47 61 87 64 90 9 8 71 100 71 105 0 3 7 13 16 23 27 30 124 172
124 181 0 5 4 11 8 13 7 2 44 52 103 139 74 108 220 316 227 325 5 5 22 30 38
55 32 49 34 52 69 94 14 17 25 36 25 43 0 6 4 12 8 12 5 0 17 16 28 35 10 19
22 35 26 35 5 0 8 5 8 10 0 6 11 23 25 38 14 15 25 30 25 35 0 4 4 13 10 20
34 41 80 109 80 116 0 5 4 11 8 13 4 2 28 32 52 68 25 36 48 67 51 70 3 3 14
20 24 38 11 17 23 32 27 32 4 0 8 6 8 13 0 7 8 22 18 33 9 10 41 55 71 99 30
44 58 82 62 85 3 3 14 20 23 38 9 17 21 32 26 32 6 0 10 5 10 10 0 6 33 57 73
113 41 56 93 131 118 166 24 35 58 85 76 110 113 163 275 395 401 574 52 73
114 161 138 197 25 36 67 97 95 135 27 39 77 111 111 160 34 50 64 92 67 95 4
3 29 38 56 79 73 108 79 116 88 119 4 2 7 8 7 14 0 5 20 36 45 68 25 32 45 61
45 64 0 3 -39 -17 -88 -46 -88 -51 -387 -228 -452 -267 -19 -11 -55 -32 -80
-46 -64 -36 -99 -57 -147 -88 -24 -15 -47 -27 -52 -27 -5 0 -16 -6 -23 -13 -7
-7 -58 -39 -113 -71 -55 -31 -107 -61 -115 -66 -35 -23 -299 -177 -311 -184
-8 -3 -27 -14 -44 -25 -16 -10 -46 -27 -65 -38 -68 -40 -315 -186 -345 -204
-16 -10 -49 -29 -72 -41 -24 -12 -43 -26 -43 -30 0 -4 -5 -8 -10 -8 -8 0 -198
-108 -280 -159 -64 -41 -154 -91 -161 -91 -5 0 -9 -4 -9 -9 0 -5 -16 -15 -35
-22 -19 -7 -35 -17 -35 -21 0 -4 -4 -8 -10 -8 -8 0 -60 -29 -135 -78 -11 -6
-31 -18 -45 -24 -14 -7 -27 -15 -30 -18 -9 -10 -65 -41 -82 -47 -10 -3 -18 -9
-18 -14 0 -5 -4 -9 -9 -9 -5 0 -67 -34 -137 -76 -127 -75 -159 -94 -228 -133
-19 -11 -52 -30 -73 -43 -21 -13 -48 -28 -58 -35 -11 -6 -99 -57 -195 -113
-96 -56 -187 -111 -202 -121 -15 -11 -32 -19 -38 -19 -5 0 -10 -4 -10 -8 0 -4
-15 -15 -32 -23 -18 -9 -69 -37 -113 -63 -105 -61 -112 -66 -161 -98 -23 -15
-44 -24 -48 -21 -3 4 -6 2 -6 -4 0 -6 -8 -13 -17 -17 -10 -3 -34 -15 -53 -27
-184 -111 -249 -149 -258 -149 -6 0 -12 -4 -14 -8 -3 -7 -103 -68 -239 -146
-51 -29 -130 -76 -302 -178 -81 -48 -152 -88 -157 -88 -6 0 -10 -4 -10 -9 0
-5 -9 -13 -21 -16 -11 -4 -40 -19 -62 -35 -23 -15 -52 -31 -64 -34 -13 -4 -23
-11 -23 -15 0 -4 -22 -18 -50 -31 -27 -13 -50 -27 -50 -32 0 -4 -4 -8 -9 -8
-5 0 -56 -28 -113 -61 -57 -34 -123 -73 -148 -87 -25 -14 -56 -32 -70 -42 -14
-9 -32 -20 -40 -23 -8 -4 -28 -16 -45 -27 -16 -11 -37 -23 -45 -27 -15 -8
-160 -93 -238 -140 -20 -12 -71 -41 -112 -64 -41 -23 -77 -45 -80 -48 -3 -4
-26 -18 -52 -31 -27 -14 -48 -28 -48 -32 0 -5 -4 -8 -9 -8 -6 0 -80 -41 -165
-91 l-155 -90 -103 62 c-57 35 -104 66 -106 71 -2 4 -8 8 -14 8 -5 0 -28 12
-51 28 -69 44 -81 52 -104 62 -13 5 -23 13 -23 18 0 4 -12 13 -27 19 -28 12
-41 20 -98 58 -36 25 -65 42 -85 51 -8 4 -17 10 -20 13 -3 3 -16 12 -30 20
-81 47 -366 227 -368 233 -2 4 -8 8 -13 8 -9 0 -139 78 -149 90 -3 3 -16 11
-30 18 -28 14 -45 25 -107 65 -108 69 -128 81 -133 82 -3 1 -44 27 -92 58 -48
31 -92 57 -98 57 -5 0 -10 3 -10 8 0 4 -9 12 -19 17 -49 25 -136 80 -139 87
-2 4 -7 8 -12 8 -9 0 -132 75 -211 129 -26 17 -52 31 -58 31 -6 0 -11 5 -11
10 0 6 -4 10 -9 10 -5 0 -68 37 -140 83 -163 102 -200 124 -228 139 -13 6 -23
15 -23 20 0 4 -4 8 -10 8 -8 0 -404 243 -547 336 -29 19 -55 34 -58 34 -3 0
-11 5 -18 10 -7 6 -111 72 -232 147 -121 75 -309 191 -418 259 -109 68 -201
124 -203 124 -3 0 -10 5 -17 10 -22 19 -460 290 -469 290 -4 0 -8 5 -8 10 0 6
-5 10 -11 10 -6 0 -34 15 -62 33 -29 19 -78 50 -109 70 -31 21 -59 37 -63 37
-3 0 -11 5 -18 10 -17 15 -137 90 -143 90 -3 0 -10 5 -17 10 -20 17 -440 279
-465 290 -12 5 -32 19 -44 30 -12 11 -26 20 -30 20 -5 0 -21 8 -36 19 -15 10
-61 39 -102 65 -41 25 -82 51 -90 56 -44 29 -189 118 -201 123 -8 4 -57 34
-109 68 -52 34 -109 70 -127 80 -17 10 -51 30 -75 46 -24 15 -51 32 -60 38
-10 5 -64 39 -120 74 -241 151 -255 158 -220 121z"/>
</g>
</svg>
